<svg xmlns="http://www.w3.org/2000/svg" viewBox="-152.362 245.945 900 350"><path fill="#DDDDDC" d="M665.305 334.945l-54 1.333 35.666 14.667 26.667-2.333 30.333 5 34.334-17.667-40 7zM-40.029 304.78l-39.666 6.333-51.917-4.583 43.583 16.583 43-1 38.334-14zM447.305 251.85l-71.334 10.268 72 9.477 49.667 16.1 66.333-27.947-62 9.478z"/><path fill="#ECECEB" d="M375.971 262.118l69.167-16.09 60.75 11.167 58.083 2.553-62 13.032-59-14.216zM-131.612 306.53l52.583.25 29.334-8 43 9.333-45.334 2.333-34 5.667zM611.305 336.278l52.333-8.333 41.333 7.333 33.334.667-35 10.667z"/><g fill="#2B2B2B"><path opacity=".1" d="M662.839 536.371l43.259-5.301 41.207 6.669-40.352 7.352zM-141.806 520.855l43.258-5.301 41.207 6.669-40.352 7.352zM-61.872 563.052l62.7-8.257 59.726 10.388-58.487 11.454zM43.282 554.076l62.7-8.258 59.726 10.389-58.487 11.454zM428.711 557.153l76.272-8.257 72.655 10.388-71.147 11.454zM185.798 546.972l106.01-19.834 125.159 21.886-40.694 28.041H258.979z"/></g><path fill="#B9DDDF" d="M-152.279 467.278l10.408-33.153 15.145-3.03-6.662 38.897z"/><path fill="#80B6BC" d="M-146.354 469.14l5.089-22.295 8.966-1.574-4.967 25.083z"/><path fill="#B9DDDF" d="M-129.268 429.763l-9.451 40.713 19.628.726 6.057-45.196z"/><path fill="#FFF" d="M-133.872 449.633l-1.453 6.299 21.322-22.658.726-5.331-20.595 21.69zm-3.394 14.782l-1.332 5.939 23.143-25.205.726-5.452-22.416 24.718h-.121z"/><path fill="#80B6BC" d="M-101.4 424.307l-16.167 7.38-7.218 39.031 8.967 2.664 14.782-1.575z"/><path fill="#B9DDDF" d="M-101.4 424.307l-11.755.973-4.846 37.56-.242 9.815 2.425.727 14.782-1.575z"/><path fill="#FFF" d="M-117.15 456.421l-.731 5.572 16.602-17.569v-4.604l-15.871 16.723v-.122zm-.972 12.356l-.121 3.877.363.121 16.602-18.054v-4.482l-16.843 18.658v-.12z"/><path fill="#80B6BC" d="M-102.852 420.191l-4.847 53.674h13.934l6.057-57.431z"/><path fill="#B9DDDF" d="M-94.249 418.008l-3.878.968-1.336 14.177zM-102.489 436.426l-3.031 38.29 13.571.848 8.24-2.062-.363-38.166z"/><path fill="#80B6BC" d="M-91.949 424.674l-5.331 50.89 10.177.485 15.634-1.09 4.362-53.315z"/><path fill="#80B6BC" d="M-77.894 413.646l-21.079 61 23.262 2.734 27.99-.847 3.393-66.765z"/><path fill="#B9DDDF" d="M-77.894 413.646l-12.093.382 3.49 27.365z"/><path fill="#80B6BC" d="M-73.41 408.92l-11.63 67.976 23.748.484-6.057-69.186z"/><path fill="#B9DDDF" d="M-76.558 477.017l9.068 1.22c1.942-10.662 6.32-37.812 10.924-59.987l.968-11.509-11.751 1.453-9.209 68.823z"/><path fill="#80B6BC" d="M-59.476 404.074l-12.72 74.638 14.298-.243 18.417-3.51 2.421-72.338z"/><path fill="#B9DDDF" d="M-78.583 480.032l14.26-1.441 9.935-28.232-3.51 28.11 5.694-.12.242-.121 7.877-75.123-7.877.484-6.058 32.715z"/><path fill="#FFF" d="M-46.873 430.247l.605-5.331-12.356 13.692-2.426 7.267 14.177-15.508v-.12zm1.21-11.271l.484-5.089-10.661 11.271-1.09 5.815 11.267-11.876v-.121z"/><path fill="#80B6BC" d="M-38.392 390.624l-13.812 87.725 30.656-2.663 8.967-.727 7.51-87.729z"/><path fill="#B9DDDF" d="M-23.973 389.171l-9.936.969-6.908 63.856 10.666-25.932z"/><path fill="#80B6BC" d="M-23.247 398.985l23.873-1.331-4.971 78.032-26.774 1.331z"/><path fill="#B9DDDF" d="M-19.732 398.743l7.393-.363-5.699 36.713-6.057 20.356 4.362-56.585v-.121zm-2.542 77.79l-4.851.243 5.093-17.087-.242 16.844z"/><path fill="#80B6BC" d="M-5.071 379.599l-7.147 32.715-3.515 64.34 31.02 6.662 14.66-108.688z"/><path fill="#B9DDDF" d="M-5.071 379.599l-7.147 32.715-3.515 64.34 8.361 1.815L5.473 378.142l-10.544 1.578v-.121zm1.82 99.722l3.026.605 4.483-52.104-7.63 51.379.121.12z"/><path fill="#FFF" d="M-11.25 408.073l-.968 4.241-.121 1.453 15.265-16.234.726-5.214-15.024 15.754h.122zm-1.331 11.751l-.242 4.85L1.595 408.92l.726-5.573-14.903 16.355v.122z"/><path fill="#80B6BC" d="M7.773 481.985l5.331-75.732 19.494-32.315 15.389-2.736-4.59 113.813-18.901 2.663z"/><path fill="#FFF" d="M11.651 426.248l.606-8.119 19.264-25.81-1.331 9.33-18.539 24.599z"/><path fill="#80B6BC" d="M45.422 484.649l.885-120.441 37.803-7.635-4.604 130.5-22.901-2.058z"/><path fill="#B9DDDF" d="M56.242 394.865l2.784-33.199-7.267 1.453zM24.712 488.56L7.138 390.112l29.833-16.834 19.03 90.917-5.898 23.339z"/><path fill="#FFF" d="M30.372 459.431l1.573-9.087 16.443-22.274 1.333 6-19.349 25.361zm7.029-25.677l-6.804-.309 15.163-18.237 1.296 6.321-9.655 12.225z"/><path fill="#80B6BC" d="M96.713 333.43L80.302 484.905l23.073 5.077 44.228-130.741-4.968-31.02z"/><path fill="#B9DDDF" d="M83.021 334.888l-9.985 100.347-11.371 52.406 25.96 1.616 3.999-30.779 7.51-90.392-6.42 54.769-8.24 31.382L96.713 333.43z"/><path fill="#FFF" d="M80.717 358.272l-.848 8.361L95.26 346.88l.848-8.236-15.391 19.628zm-1.816 18.055l-.848 8.482 15.394-19.292.962-9.912-15.508 20.722z"/><path fill="#80B6BC" d="M105.195 352.941l33.925-3.635-13.207 140.434-31.383.242z"/><path fill="#B9DDDF" d="M108.514 332.047l10.772-1.282-9.245 159.097-15.511.12z"/><path fill="#FFF" d="M117.551 374.995l-.484 7.994-15.75 20.116.605-8.361 15.629-19.87v.121zm-1.21 17.687l-.484 7.877-15.992 21.206.605-7.877 15.993-21.206h-.122z"/><path fill="#80B6BC" d="M134.516 318.286l-14.661 171.091 23.143 8.967 30.052.969 15.266-184.058-28.353-1.574z"/><path fill="#B9DDDF" d="M134.516 318.286l-14.661 171.091 23.143 8.967 16.965-184.663z"/><path fill="#FFF" d="M131.122 357.788l-.726 8.12 28.11-35.987.731-7.877-28.115 35.744zm-1.452 17.207l-.726 8.357 27.99-37.077.847-8.845-28.111 37.565z"/><path fill="#80B6BC" d="M188.316 315.255l10.298 187.693 45.075 4.725 11.755-207.441-41.802-2.421-.242 2.663-5.456 7.635-5.089 1.089z"/><path fill="#B9DDDF" d="M188.316 315.255l-18.055 184.058 28.353 3.635 15.028-205.137-3.273 4.115-1.941 11.15-3.632 37.44.121 3.031-5.819 3.026 3.757-47.375-3.268 1.937z"/><path fill="#FFF" d="M176.44 436.426l-.847 8.724 29.809-38.166.848-8.362-29.809 37.924v-.12zm-1.938 20.116l-.847 7.994 30.778-40.591.605-8.115-30.536 40.712z"/><path fill="#80B6BC" d="M747.471 467.445l-14.501-37.803-13.208-1.336 8.119 42.412z"/><path fill="#80B6BC" d="M711.526 425.28l21.444 4.362-.727 41.076-17.207.969z"/><path fill="#80B6BC" d="M689.351 416.434l21.081 2.058 4.362 16.844 2.789 36.471-17.813 1.816h-5.209z"/><path fill="#B9DDDF" d="M699.891 417.403l10.541 1.089 4.362 16.844.242 2.662-1.695 10.546-7.876 15.749-2.543-26.048z"/><path fill="#FFF" d="M699.891 417.403l6.178.605 6.304 7.998 2.421 9.33.121 1.332-15.024-19.265zm14.055 27.263l-.605 3.878-.725 1.453-9.814-12.966-1.336-9.088 12.481 16.602v.121z"/><path fill="#80B6BC" d="M677.475 413.162l14.54 1.815 6.787 59.01-6.787 1.335-17.087.242z"/><path fill="#80B6BC" d="M659.058 407.346l18.659 2.543 16.723 65.797-20.722 2.663-9.693.363z"/><path fill="#B9DDDF" d="M677.717 409.889l11.838 1.665 4.885 64.132-5.456.725-7.51-31.504z"/><path fill="#80B6BC" d="M644.639 403.589l4.605.606 36.336 72.246-21.555 4.696-16.238-.605z"/><path fill="#B9DDDF" d="M649.244 404.195l17.812 1.937 2.3 62.282-5.331 12.723-3.636-23.869z"/><path fill="#FFF" d="M649.203 404.052l5.492.748 12.931 16.243.257 7.694-18.397-23.332-.242-1.211-.041-.142zm19.706 44.177l-14.819-21.134-2.183-10.177 16.489 21.693.513 9.618z"/><path fill="#80B6BC" d="M625.511 388.416l23.249 7.902 5.815 85.061-34.757.334z"/><path fill="#80B6BC" d="M592.534 380.568l14.908 2.179 30.895 100.449-8.362 3.272-31.384-2.905z"/><path fill="#B9DDDF" d="M607.442 382.747l25.2 3.757-6.307 86.732-4.838 2.086-3.515-31.746z"/><path fill="#FFF" d="M629.858 425.038l-.489 6.904-17.203-22.053-1.699-9.451 19.391 24.6zm-1.094 15.507l-.484 6.42-12.481-16.476-1.695-9.45 14.66 19.506z"/><path fill="#80B6BC" d="M580.542 377.901l5.879.792 22.716 106.685-21.085-1.33z"/><path fill="#B9DDDF" d="M590.84 377.053l6.171.988 12.003 107.337s-6.056-8.239-6.056-.363l-4.609-.243.609-28.719-7.514-37.077-2.788-39.986 2.184-1.937z"/><path fill="#80B6BC" d="M552.548 367.118l15.996 3.515 25.565 114.382-13.94 5.052-23.98-4.585z"/><path fill="#B9DDDF" d="M568.544 370.633l12.724 2.784 12.841 111.598-11.752 2.663-7.151-47.375z"/><path fill="#FFF" d="M583.81 395.954l.973 8.603-14.906-19.143-.726-8.24 14.66 18.659v.121zm2.183 19.023l.969 8.482-15.386-20.355-.852-8.482 15.148 20.233.121.122z"/><path fill="#80B6BC" d="M524.559 359.967l34.067 8.82 12.098 117.802-36.956-1.574z"/><path fill="#B9DDDF" d="M542.855 363.482l15.997 3.031-.121 20.354 3.51 47.379-5.936 41.318-5.088-47.016z"/><path fill="#FFF" d="M559.577 398.017l.606 8.236-14.176-18.054-1.09-8.72 14.66 18.538zm1.333 18.417l.605 7.994-13.082-17.203-1.094-8.845 13.571 18.176v-.122z"/><path fill="#80B6BC" d="M467.365 329.557l45.807 9.693 22.627 132.831-37.655 16.329z"/><path fill="#B9DDDF" d="M496.691 335.735l8.603 1.815 7.389 47.622.489-45.922 12.719 2.663 13.575 144.434-34.051 1.699-4.483-65.918z"/><path fill="#80B6BC" d="M499.237 390.018l22.78.969 5.693 96.691-20.721 1.699z"/><path fill="#80B6BC" d="M464.218 349.911l35.988 4.726 11.751 134.741-15.024 1.695-19.265-2.3s-13.934-138.377-13.571-138.74l.121-.122z"/><path fill="#B9DDDF" d="M492.648 362.439l7.558-7.802 11.872 134.74-10.903.145-8.12-114.648z"/><path fill="#FFF" d="M506.626 426.975l.726 8.118-12.719-16.359-.242-7.389 12.235 15.63zm1.573 17.448l.73 8.361-13.691-18.175-.242-7.877 13.203 17.691z"/><path fill="#80B6BC" d="M431.383 317.196l17.702 3.076 11.183 9.21 4.203-6.537 9.44 1.64 7.393 112.446 1.089 54.647-39.623 2.667z"/><path fill="#B9DDDF" d="M449.073 320.344l15.387 2.667-.302 52.294 1.026 54.031-12.115-75.547zM373.584 306.531l62.403 7.392 13.934 119.108 4.893 64.478-23.143 1.695-31.803-21.651z"/><path fill="#FFF" d="M436.712 319.617l1.333 11.755-29.689 51.011-2.542-11.025 30.778-51.742h.12zm2.664 23.022l1.578 13.692-31.504 56.709-2.547-8.967 32.352-61.434h.121z"/><path fill="#80B6BC" d="M373.584 306.531l37.681 4.483 15.633 100.089 4.773 88.101-9.746-1.732-36.954-5.432z"/><path fill="#B9DDDF" d="M364.254 328.221l43.618 11.997 11.029 84.456 3.024 72.798-66.517 8.261z"/><path fill="#FFF" d="M413.082 380.447l1.578 11.63-28.11 48.348-2.547-11.025 29.079-48.953zm3.03 22.779l1.699 13.329-30.294 54.526-2.547-8.967 31.02-58.889h.122z"/><path fill="#B9DDDF" d="M329.84 296.959l46.532 2.546 1.695 10.783 18.296 193.75-55.982 5.935-43.861 3.757z"/><path fill="#80B6BC" d="M376.372 299.505l7.874 3.031 12.117 201.502-16.117 1.695-.969-106.385zM214.732 508.037l27.662-174.451 44.113-36.42 43.333-.207-3.026 214.23-35.019 4.24z"/><path fill="#B9DDDF" d="M214.732 508.037l15.023-176.18 17.812-35.262 38.94.571 5.288 218.263-16.723-1.699-7.51-17.69-2.599-89.359-27.528 104.042z"/><path fill="#FFF" d="M220.304 442.603l1.695-19.385L287.789 350l.641 21.159-68.127 71.57v-.126zm2.788-32.835l1.937-23.022 61.862-74.832.513 19.236-64.312 78.618z"/><path fill="#6F7173" d="M621.86 384.809l13.449-6.788-2.909-2.663-10.903-.121-11.03 5.936 1.333 2.3z"/><path fill="#9CA0A1" d="M635.431 373.78l-6.908-1.573-1.574 2.667 1.574 1.937 2.545.484 4.241.726zM620.891 377.658l.969 33.93-.969.121-.972-34.051zM630.342 380.568l.605 30.415h-.972l-.606-30.415z"/><path fill="#6F7173" d="M616.892 407.346l.969 10.42 7.146.121 2.668-4.725-2.909-5.816z"/><path fill="#9CA0A1" d="M633.732 408.436l-8.966-1.09.241 10.541 8.483-.605z"/><path fill="#858686" d="M607.442 382.747v-6.905l21.081-3.635V376.811l-16.723 6.662z"/><g><path fill="#4F5253" d="M656.598 478.237l12.758-9.823-48.92-2.915-40.619 5.653 50.878 18.968z"/><path fill="#858686" d="M599.928 381.657l2.469-1.65 15.1 98.1h-3.878z"/><path fill="#8F8F8F" d="M602.397 380.007l2.137.513 13.251 96.605h-2.308z"/><path fill="#737474" d="M590.84 386.383l13.63 13.277-9.509 14.954 13.324 10.212-12.599 11.478 15.431 11.925-11.674 18.611-.12-5.089 9.523-13.281-13.644-9.498-.364-5.456 10.594-8.562-12.534-8.762v-4.483l8.366-11.953-11.272-10.585z"/><path fill="#6F7173" d="M630.827 454.843l.12 24.358 9.572.967 2.059-12.118-2.664-13.571z"/><path fill="#9CA0A1" d="M646.576 452.785l1.211 24.111-7.268 3.272-.726-25.809z"/><path fill="#4F5253" d="M634.341 458.478h2.301l.12 4.485-2.667-.123z"/><path fill="#737474" d="M628.771 448.443l.357 8.22 10.786.484 1.452-3.636-1.694-4.847-2.304.122.121 1.331-2.3-.12-.121-1.453h-1.941v1.695l-1.962-.001.025-1.936z"/><path fill="#858686" d="M648.275 447.696l-1.294.106.08 1.831-1.333.121-.115-1.867-2.063.293.117 1.937-1.816.364.171-2.123-2.35.306.242 8.483 8.478-2.546zM597.26 474.475l-10.903-95.848 2.618-2.039 14.02 99.084z"/><path fill="#8F8F8F" d="M588.975 376.588l1.865.465 12.583 98.619-4.36.769"/><path fill="#6F7173" d="M642.819 458.358l-.12 4.241 2.304-.848v-4.483zM579.817 471.152l47.616 2.471.114 21.489-47.378-5.045z"/><path fill="#858686" d="M669.356 468.414l-42.892 5.209.841 21.489 43-6.834z"/></g><g><path opacity=".1" fill="#2B2B2B" d="M154.995 530.088l10.381-1.714 11.048 2.857-10.953 1.714z"/><path fill="#3F8F6F" d="M161.947 530.564l-4.452-6.563 3.976 2.087.476-9.143 2.286 9.619 5.524-7.428-2.19 7.619 5.761-5.088-6.904 9.088z"/><path opacity=".1" fill="#2B2B2B" d="M183.971 588.984l19.967-3.06 17.748 4.59-18.258 5.431z"/><path fill="#3F8F6F" d="M198.43 589.443l-10.557-13.923 9.792 6.732-2.104-13.662 6.541 14.427 3.901-12.151.402 12.182 10.04-7.229-10.824 13.93z"/><path opacity=".1" fill="#2B2B2B" d="M645.404 525.394l-11.192-1.848-11.911 3.081 11.808 1.848z"/><path fill="#3F8F6F" d="M637.908 525.908l7.605-8.13-7.092 3.304.467-8.929-3.444 9.442-3.181-9.067-.413 9.273-8.522-5.237 9.754 9.549z"/><g><path opacity=".1" fill="#2B2B2B" d="M595.781 580.564l15.571-2.571 16.572 4.285-16.429 2.572z"/><path fill="#3F8F6F" d="M606.209 581.278l-9.857-13 9.143 6.286.714-13.714 3.429 14.428 8.286-11.142-3.286 11.428 11.857-7.286-13.571 13.286z"/></g><g><path opacity=".1" fill="#2B2B2B" d="M-111.219 572.278l15.571-2.571 16.572 4.286-16.429 2.571z"/><path fill="#3F8F6F" d="M-100.791 572.993l-5.904-12.715 5.19 6 .714-13.714 3.762 11.548 7.953-8.262-3.286 8.428 4.5-2.333-6.214 11.333z"/></g></g><g><path fill="#36785D" d="M6.567 314.529l5.089 3.878 1.937 1.937-1.574 1.331z"/><path fill="#3F8F6F" d="M20.138 317.313l-8.482 1.094.363 3.268 8.724-.242 1.816-2.3z"/><path fill="#36785D" d="M31.163 309.803l-11.025 7.51.605 4.12 15.992-6.541z"/><path fill="#3F8F6F" d="M36.251 303.379l-5.088 6.424.241 2.664 2.547-.122.727 3.394 2.057-.847 9.572-2.547-1.089-6.783z"/><path fill="#36785D" d="M43.886 297.927l-3.757.727-3.878 4.725 10.056 8.966 5.819-3.393.485-3.995-1.211-4.972z"/><path fill="#3F8F6F" d="M59.394 297.564l-3.269-1.816-5.335 1.937-6.904.242 8.725 7.03z"/><path fill="#36785D" d="M56.73 293.686l-5.94 3.999 8.604-.121.847-2.788z"/><path fill="#36785D" d="M56.851 288.598l-1.819 1.089 1.819 1.457-.121 2.542 2.906 1.09 1.578-2.058 8.967-1.82-1.458-4.359z"/><path fill="#3F8F6F" d="M48.975 290.414l5.815-1.332.484-1.09 1.577.606v2.546z"/><path fill="#54B08B" d="M53.216 285.809l3.635 2.789-1.093.242-.968.242zM61.214 292.718l6.783 2.058-1.331 2.425-7.272.363-2.664-3.878 2.664-.605zM46.917 283.63l-3.031 14.297-7.635 5.452 4.363-10.782-.485-4.605 3.636-4.483z"/><path fill="#3F8F6F" d="M20.259 285.083l-9.209-12.845 3.874-2.784 20.48 2.784 8.361 12.723-3.151 7.636-7.026-.606z"/><path fill="#36785D" d="M36.009 271.512l10.908 12.118-3.152 1.331-9.087-12.117-.122-.969z"/><path fill="#54B08B" d="M36.009 271.512l-1.331 1.332-20.359-2.906.605-.484z"/><path fill="#36785D" d="M33.588 291.991l-13.329-6.908 14.419-12.239z"/><path fill="#54B08B" d="M63.635 302.895l-11.024 2.062-6.304 7.388 10.908-.847 6.42-5.936.969-.847z"/><path fill="#3F8F6F" d="M79.147 313.072l-15.512-10.177v2.667l6.546 8.241 7.267-.121.968.241z"/><path fill="#36785D" d="M46.307 312.345l14.06 2.063 6.662 8.115 15.996 2.546-3.878-11.997-15.512-7.51-8.724 3.39z"/><path fill="#3F8F6F" d="M60.367 314.408l6.662 8.115-3.394-16.961z"/><path fill="#54B08B" d="M30.194 322.769l6.541-7.877-2.784-2.547z"/><path fill="#54B08B" d="M23.407 322.769l10.544-10.424-1.578-1.331-1.21-1.211z"/></g><g><path fill="#6F7173" d="M700.376 490.346l10.338-.311-2.308 48.986-5.386-.128z"/><path opacity=".1" fill="#2B2B2B" d="M700.376 490.346l9.403 19.573-.39 8.413-7.865-5.899z"/><path fill="#36785D" d="M667.903 497.86l41.876 12.059 10.956-15.211 17.565 3.757-29.979-30.829-11.456-7.352z"/><path fill="#3F8F6F" d="M709.779 509.919l28.521-11.454-23.824-36.301-14.1 18.368z"/><path fill="#3F8F6F" d="M670.934 468.655l29.442 11.877 13.208-16.117 16.964 1.682-24.792-23.937-11.114-3.249z"/><path fill="#54B08B" d="M700.376 480.532l37.867-11.785-19.321-25.049-12.311 7.866z"/><path fill="#36785D" d="M690.562 414.856l-14.176 27.505 30.225 9.203 9.398-14.413 18.051 8.241-19.386-28.716z"/><path fill="#3F8F6F" d="M706.611 451.564l27.449-6.172-15.024-22.295-17.933 6.303z"/><path fill="#3F8F6F" d="M694.319 402.379l-15.391 19.749 22.175 7.272 11.754-10.666 13.571 3.515-14.543-21.569z"/><path fill="#54B08B" d="M701.103 429.4l25.325-7.151-11.27-16.602-3.516.363-4.347 4.689z"/><path fill="#54B08B" d="M702.471 368.445L687.653 402.5l19.642 8.199 6.531-10.261 7.025 3.757z"/><path fill="#74C7A5" d="M707.295 410.699l13.556-6.504-18.38-35.75z"/><g><path fill="#6F7173" d="M-106.154 479.776l12.14 1.111-3.334 41.292-5.384.026z"/><path opacity=".1" fill="#2B2B2B" d="M-102.732 479.321l8.718-.571-1.849 25.006-9.009-9.49z"/><path fill="#36785D" d="M-131.33 485.863l26.458 8.403 24.92-16.522 10.662 8.724-21.476-32.853-17.953-.769z"/><path fill="#3F8F6F" d="M-104.872 494.266l35.582-7.798-16.944-28.664-3.895 11.578z"/><path fill="#3F8F6F" d="M-128.662 460.173l38.533 9.209 9.935-13.813 11.63 6.424-29.126-26.074-7.695-3.591z"/><path fill="#54B08B" d="M-90.129 469.382l21.565-7.389-18.354-26.074-10.967 3.295z"/><path fill="#36785D" d="M-104.102 415.657l-19.715 21.374 27.837 9.66 8.877-14.627 14.056 7.513-23.361-21.868z"/><path fill="#3F8F6F" d="M-95.98 446.691l22.933-7.114-18.744-19.56-7.182 11.371z"/><path fill="#3F8F6F" d="M-106.41 402.321l-15.102 16.777 22.539 12.29 11.749-15.801-5.08-4.033-5.643-11.542z"/><path fill="#54B08B" d="M-98.973 431.388l19.236-9.735-11.798-13.946-1.261-2.665-1.695 6.424z"/><path fill="#54B08B" d="M-102.05 372.57l-14.363 30.777 21.922 8.119 3.269-9.087-3.476-5.188z"/><path fill="#74C7A5" d="M-94.491 411.466l11.509-6.666-19.068-32.23z"/></g></g><g><path fill="#496935" d="M26.353 552.883l-9.273 6.001-.182 4.818 31.366.182v-5.455zM-28.379 559.338l-6.637 3.364-.182 4.274 24.548.09-.091-4.364z"/><path fill="#71A14F" d="M23.626 541.155l13.728 6.182 10.91 11.092-31.184.455.272-9.274zM-16.469 544.155l3.818 6.001 1.91 12.546h-24.275l2.454-12.001z"/><path fill="#4F5253" d="M-12.651 550.156l4.91-21.911-10.455-1.546-11.926 2.283-2.44 21.719z"/><path opacity=".1" fill="#2B2B2B" d="M-10.105 539.064l2.364-10.819-10.455-1.546-11.926 2.283z"/><path fill="#4F5253" d="M17.352 549.61l-5.909-22.093 3.818-6.046 19.275 5.183 2.818 20.683z"/><path opacity=".1" fill="#2B2B2B" d="M14.17 537.791l-2.727-10.274 3.818-6.046 19.275 5.183z"/><path fill="#71A14F" d="M-35.622 426.776l-8.742-29.33 2.823-.806 8.074 29.464z"/><path fill="#5D7D3F" d="M-56.071 379.825l4.575 16.412 8.745 1.747.404-7.935-5.113-6.595z"/><path fill="#496935" d="M-43.019 373.901l-4.441 9.553 4.709 14.53 6.323-6.994z"/><path fill="#71A14F" d="M-20.689 421.797l-8.607-29.329 2.689-.806 8.208 29.463z"/><path fill="#5D7D3F" d="M-41.003 374.712l4.575 16.278 8.611 2.016.403-7.8-4.978-6.73z"/><path fill="#496935" d="M-27.952 368.789l-4.44 9.687 4.575 14.53 4.978-5.784z"/><path fill="#71A14F" d="M-30.51 417.492l-8.607-29.329 2.689-.807 8.073 29.464z"/><path fill="#5D7D3F" d="M-51.9 370.004l5.65 17.352 8.611 1.344.807-8.069-5.381-6.456z"/><path fill="#496935" d="M-36.697 362.736l-5.516 11.439 4.574 14.525 6.322-6.725z"/><path fill="#464646" d="M-42.079 413.858l11.838 42.785 21.797-7.538-10.896-42.779z"/><path fill="#393939" d="M-42.079 413.858l4.038 14.262 19.642-18.026-16.82 1.479z"/><path fill="#8E8E8E" d="M-48.131 408.074l2.688 10.224 30.543-9.283-2.961-10.897z"/><path fill="#71A14F" d="M-34.375 434.788l19.329-8.764 33.633-.643 18.814 8.373-8.764 49.486-24.997 4.119-29.38-2.705z"/><path fill="#496935" d="M-25.997 490.325l.257-5.671 54.377-1.414.387 5.797-26.672 5.025z"/><path fill="#799455" d="M-30.122 528.982c.258-1.03 4.253-38.657 4.253-38.657l28.478-.644 26.543-.645-15.977 26.929-43.297 13.017z"/><path fill="#496935" d="M34.536 526.654l-5.512-37.617-23.4 15.66-2.371 13.205 8.19 9.615z"/><path fill="#5D7D3F" d="M-30.122 528.982l41.565-1.465-5.819-22.82-7.139 4.956z"/><path fill="#496935" d="M-36.195 434.945l-7.2 35.149 22.68-6.442-6.055-32.344z"/><path fill="#FFDBC6" d="M-8.857 484.141l-16.883.513-17.655-14.56 14.432-4.124 9.665-10.824 12.887 4.382 28.221-7.991 5.798 6.185-6.57 14.045-15.849 2.194z"/><path fill="#E8B89C" d="M-33.988 454.375l9.536-9.794 10.955 11.466-2.192 6.184-13.274 3.739z"/><path fill="#F4CAB3" d="M-5.896 459.399l-18.556-14.818 8.763 17.65zM5.189 473.961l23.448 9.279 8.249 2.446 1.803-17.137-11.081-10.827z"/><path fill="#E8B89C" d="M49.001 472.411l-9.664-16.106-11.729 1.417 9.278 27.964z"/><path fill="#496935" d="M37.401 433.754l11.6 38.657-21.393-14.689z"/><path fill="#FFDBC6" d="M-.657 360.626l15.084-.945 21.642-1.614 2.707 60.5-15.74.811-16.277 13.719-11.166-3.763-12.783-15.476-2.127-15.876-1.139-11.533 4.745-8.511 6.865 12.648 5.246-3.633-15.351-17.581z"/><path fill="#EDBFA8" d="M-.657 360.626l4.588 60.23-10.09 11.435-9.821-6.86-6.859-29.463-3.365-12.649 5.748-8.688 14.835 12.456-12.255-18.257z"/><path fill="#C3937C" d="M-16.383 390.318l-1.478-6.188-6.053 1.479zM-22.839 395.968l8.476-3.097-5.654 14.531z"/><path fill="#EDBFA8" d="M6.525 375.201l6.69 5.491 4.843 14.53-1.478-19.911zM23.708 374.903l.941 13.724 3.768-10.359 4.378-3.779z"/><path fill="#C3937C" d="M-.106 421.125l-6.053 11.166 13.052 9.149 16.143-22.062z"/><path fill="#464646" d="M23.44 372.35l9.426-1.492-.071 3.631-9.087.414zM16.311 372.619l-10.569-2.26.783 4.842 10.055.11zM4.992 345.289l-19.911 9.822 7.537 5.246 6.725.269 16.318.194-.713-4.5z"/><path fill="#727272" d="M-14.919 355.111l-17.084 9.417 9.687 4.167 5.919.677 15.74-8.746z"/><path fill="#2A2A2A" d="M-32.003 364.528l5.799 18.791 10.493-3.226 3.365 11.972 8.611-3.096-12.662-19.597z"/><path fill="#8E8E8E" d="M15.661 360.82L4.992 345.289l31.077 12.778z"/><path fill="#5D7D3F" d="M-6.411 459.528l15.076-4.252-1.802-13.918-21.909-15.334-11.724 5.284 2.318 13.273z"/><path fill="#2B2B2B" d="M13.869 381.461c.297 1.324-.535 2.637-1.858 2.934-1.324.297-2.637-.535-2.934-1.858-.297-1.324.535-2.637 1.858-2.934 1.324-.297 2.637.535 2.934 1.858zM31.026 380.322c.297 1.324-.535 2.637-1.858 2.934-1.324.297-2.637-.535-2.934-1.858-.297-1.323.535-2.637 1.858-2.934 1.323-.297 2.637.535 2.934 1.858z"/><path fill="#EDBFA8" d="M26.886 401.114l9.112 3.915-13.882 3.204-14.665-1.637z"/><path fill="#464646" d="M21.191 396.059l-3.133-.837-10.607 11.374 28.547-1.567-10.945-10.349z"/><path fill="#2B2B2B" d="M25.053 394.68l-3.495 3.499-3.5-2.957z"/><path fill="#FDE8DF" d="M23.708 374.903l-7.128.408 1.478 19.911 6.995-.542z"/></g><g><path fill="#EDBFA8" d="M53.052 498.562l-8.848 1.026 1.667 12.567 13.208 1.539 2.052-10.13-2.437-4.873 5.899 3.59 2.437-.769-4.232-10.003z"/><path fill="#FFDBC6" d="M52.539 483.43l-3.591 4.104-4.744 12.054 16.927 3.976 1.667-12.055z"/><path fill="#54B08B" d="M64.722 460.091l-8.721 4.104-7.053 23.339 13.85 3.975 7.438-16.67z"/><path fill="#3F8F6F" d="M92.613 439.766l-19.577-4.531-17.035 28.96 13.401 12.375 7.652-6.882z"/><path fill="#36785D" d="M129.032 545.604l14.021 3.078-.128 4.231-30.649.043-.171-4.274z"/><path fill="#54B08B" d="M122.535 529.532l7.865 6.326 12.653 12.824h-30.948l.171-8.208z"/><path fill="#36785D" d="M85.774 548.511l3.59 4.873-.171 4.787-25.561.086-.193-4.873z"/><path fill="#54B08B" d="M85.261 536.884l1.71 5.471 2.393 11.029H63.439l3.698-11.2z"/><path fill="#4F5253" d="M109.882 507.475l16.928 8.891 3.59 19.492-18.124 4.616-12.14-29.922z"/><path opacity=".1" fill="#2B2B2B" d="M109.882 507.475l16.928 8.891-20.176 10.259-6.498-16.073z"/><path fill="#4F5253" d="M82.525 492.941l-9.831 24.964-5.557 24.279 19.834.171 14.362-34.367-5.642-3.078z"/><path opacity=".1" fill="#2B2B2B" d="M82.525 492.941l-9.831 24.964 20.945 8.677 7.694-18.594-5.642-3.078z"/><path fill="#36785D" d="M92.955 494.053l30.264-6.925 3.591 29.238-54.116 1.539 13.889-16.351z"/><path fill="#3F8F6F" d="M103.898 473.62l19.321 13.508-50.525 30.777 5.899-31.034z"/><path fill="#36785D" d="M112.105 468.491l12.14 11.969-1.026 6.668-44.626-.257-.513-5.898z"/><path fill="#F5CAB3" d="M168.743 382.113l4.232-2.533 5.129-16.072-14.02-5.643-4.36 7.609-4.435 7z"/><path fill="#C4937D" d="M155.289 372.474l17.686 7.106-8.036 13.764-9.105-1.731z"/><path fill="#FFE6D6" d="M154.936 396.935l-3.847-11.285-.513-8.549 3.676-12.909 5.472 1.282-.973 10.943 3.366 10.259z"/><path fill="#54B08B" d="M127.493 427.455l26.674-1.197 10.772-32.914-13.85-6.412z"/><path fill="#3F8F6F" d="M119.286 463.105l13.337-9.49 21.544-27.357-23.083-22.142-18.21 26.93z"/><path fill="#3F8F6F" d="M89.535 455.411l-13.336 7.779 1.881 17.783 46.165-.513 8.378-26.845z"/><path fill="#54B08B" d="M94.665 421.642l-7.01 7.181-14.619 6.412 4.018 34.453 55.569-16.073-1.282-29.751-16.158 2.052z"/><path fill="#FFDBC6" d="M86.645 416.268l5.185 15.012 13.278.337 12.03 3.382 6.339-4.875 3.815-4.03 13.641-.559 3.786-60.7-50.426-.27z"/><path fill="#EDBFA8" d="M104.973 385.789l9.328 5.542 6.758 11.76 7.569-.135 4.732-11.625 9.463-6.623-14.195.27-1.756 1.081-6.083.27-3.381-.811zM86.645 416.268l1.01 12.555 12.268 9.532 2.749-12.01-1.35-52.586-7.029-9.194z"/><path fill="#C3937C" d="M124.049 430.315l12.209-4.96-33.586.99-5.677.945 2.928 11.065 13.208 8.336zM86.645 416.268l4.461-12.473-7.373 3.687z"/><path fill="#2A2A2A" d="M125.386 373.488l17.708-9.463 7.482-17.103-57.908 19.129-18.218 13.234 5.139 15.847 10.972 2.187 5.899-.961 4.862-22.599z"/><path fill="#464646" d="M150.576 346.922l-69.675 10.43 7.44 13.296 12.981 3.111z"/><path fill="#EDBFA8" d="M89.728 390.535l-10.139 4.597 4.3 12.643 11.355-5.002z"/><path fill="#C3937C" d="M86.347 395.673l-3.516 1.49 6.416 4.516z"/><path fill="#8E8E8E" d="M143.908 377.015l6.668-30.093-25.19 26.566z"/><path fill="#727272" d="M74.45 379.285l26.872-5.526-7.433-6.628-12.988-9.779z"/><path fill="#464646" d="M104.973 385.789l7.028-4.327 5.407 4.056zM128.628 384.978l7.843-5.407 6.352 5.137z"/><path fill="#FDE8DF" d="M120.789 386.329l6.083-.27 1.756 16.897-7.569.135z"/><path fill="#C3937C" d="M125.251 406.877l-4.192-3.786 7.569-.135zM112.676 410.394l24.2-.405-4.462 10.409h-15.546z"/><path fill="#FFF" d="M114.842 411.879h18.248l-1.216 3.247-15.006.405z"/><path d="M117.325 392.186c0 1.567-1.271 2.838-2.838 2.838-1.567 0-2.838-1.27-2.838-2.838s1.271-2.838 2.838-2.838c1.567 0 2.838 1.271 2.838 2.838zM135.877 391.804c0 1.567-1.27 2.838-2.838 2.838s-2.838-1.27-2.838-2.838 1.271-2.838 2.838-2.838 2.838 1.271 2.838 2.838z"/></g><g><path fill="#5A753D" d="M464.474 551.22l-17.568 1.411-.129 4.488 36.163.385.032-4.04z"/><path fill="#709D52" d="M472.168 531.728l-7.95 8.207-17.312 12.696 36.066.833 1.251-8.143z"/><path fill="#5A753D" d="M529.618 556.264l11.798 3.933.171 3.676-24.151-.214-.086-3.505z"/><path fill="#709D52" d="M529.362 538.14l-9.233 10.515-2.779 11.499 24.066.043-2.308-13.08z"/><path fill="#F5CAB3" d="M563.25 494.712l4.772 1.536.905 11.207-9.297 2.456-4.608-7.522-.246-7.216-5.019 5.373-2.715-2.072 3.252-7.728z"/><path fill="#FFE6D6" d="M557.079 484.349l5.436 2.309 5.507 9.59-13 6.141-4.728-11.643zM509.547 369.404l-15.813-9.276-6.714 1.325-2.76 8.334.12 8.264-5.758 37.062 17.03 3.753 20.032.88 8.764-35.06 1.506-16.401-13.898-1.38z"/><path fill="#F5CAB3" d="M519.729 380.483l-10.142 3.632-7.64 11.773.876-8.146 1.252-5.883 4.511-2.502zM496.132 377.956l2.558 3.652.631 4.133-3.382 9.298-1.505-11.93-8.661-5.342 6.536-.7z"/><path fill="#464646" d="M508.998 375.006l11.285 2.693-.554 2.784-11.143-1.126zM496.26 377.913l.427-3.847-10.515 1.197-.399 2.504z"/><path fill="#FFF1E8" d="M498.69 381.608l-2.751 13.431 2.627 1.271 3.381-.422 2.128-14.068z"/><path fill="#F5CAB3" d="M525.954 368.285l8.511 9.766-2.126 7.885-5.384 9.766 2.502.63 1.63 2.627 2.877-2.251 2.381-5.384 2.752 4.128 3.382 1.756-4.757 4.257-2.132 4.883-1.25 3.128-9.516 28.421-24.915-7.51-.251-6.763-21.036-8.511 37.062 4.633 6.513-36.561z"/><path fill="#F5CAB3" d="M531.087 398.959l-1.256 3.007 5.759 4.382 6.889-9.14-6.134-5.884z"/><path fill="#464646" d="M484.26 378.677l-3.733-18.328 2.728.797 3.676.837z"/><path fill="#727272" d="M509.547 369.404l-29.02-9.055 15.901-14.709 13.872 12.75z"/><path fill="#8E8E8E" d="M509.547 369.404l1.629-13.266 26.066-4.27 11.381 12.687-11.527 4.356-11.142-.626z"/><path fill="#727272" d="M548.623 364.555l-.383 31.572-10.601-8.083-3.174-9.993-8.511-9.766z"/><path fill="#464646" d="M534.465 378.051l-7.51 17.651 4.132 3.257 5.258-7.635 6.134 5.884 5.761-1.081z"/><path fill="#C4937D" d="M539.223 397.708l-2.253-2.131-2.63 4.633zM535.59 406.348l-4.127-3.131.625 13.273zM495.939 395.039l3.002 3.385 3.006-2.536z"/><path fill="#F5CAB3" d="M522.017 421.039l2.905 17.933-24.354-8.241z"/><path fill="#35785D" d="M478.093 448.229l10.772-4.103 11.825 8.295 8.966 14.781-8.927 18.234-8.724 2.299-9.33-.847-6.178-9.209z"/><path fill="#3F8F6F" d="M529.163 453.996l-1.143 28.943-28.501 9.28 1.171-39.798z"/><path fill="#54B08B" d="M484.865 423.728l47.208 8.941 1.09 7.271-3.152 20.112-2.179 2.911-27.142-10.542-22.597-4.192-3.334-12.054z"/><path fill="#3F8F6F" d="M554.522 459.642l-22.449-26.973-4.241 30.294 8.224 6.297 12.054 3.591z"/><path fill="#35785D" d="M562.515 486.658l-7.993-27.016-18.466 9.618 14.365 22.213z"/><path fill="#4F5253" d="M539.108 547.117l-3.659-19.309-10.177-7.998-13.934 3.636 8.791 25.209z"/><path opacity=".1" fill="#2B2B2B" d="M535.449 527.808l-10.177-7.998-13.934 3.636 3.815 10.702z"/><path fill="#4F5253" d="M464.218 539.935l4.591-22.671 10.472-11.596 14.245 12.81-9.303 26.843z"/><path opacity=".1" fill="#2B2B2B" d="M468.809 517.264l10.472-11.596 14.245 12.81-4.661 13.362z"/><path fill="#F5CAB3" d="M515.73 436.239l-11.669-14.298 22.762 9.682z"/><path fill="#C4937D" d="M522.072 420.372l-43.45-5.259 15.023 6.058 10.204 19.877 11.727-4.969z"/><path fill="#2B614C" d="M474.677 487.735l1.82-10.056 51.523 5.26-.028 10.132-27.384 7.63z"/><path fill="#54B08B" d="M468.809 517.264l34.829-17.411 7.148 17.934.552 5.659z"/><path fill="#3F8F6F" d="M527.992 493.071l7.457 34.737-24.111-4.362-11.496-19.006z"/><path fill="#35785D" d="M468.809 517.264l5.868-29.529 53.315 5.336z"/><path fill="#C4937D" d="M488.66 399.697l22.038 2.131-7.092 8.279-10.8-1.06z"/><path fill="#FDFDFD" d="M490.951 401.162l1.656 3.711 11.832 1.338 2.811-3.194z"/><path fill="#464646" d="M537.242 351.868l-40.814-6.228 13.119 23.764z"/><path fill="#3F8F6F" d="M452.636 423.608l25.457 24.621 6.772-24.501-14.781-13.449-11.996-3z"/><path fill="#35785D" d="M452.835 382.75l-.199 40.858 17.335-12.995-4.417-28.226z"/><path fill="#CDCCCB" d="M444.716 381.172l52.343-48.585 3.878 4.237-52.343 48.59z"/><path fill="#E5E5E3" d="M448.836 389.776c2.664-2.421 2.785-6.662.364-9.209-2.425-2.663-6.666-2.789-9.209-.363-2.667 2.425-2.788 6.662-.363 9.208 2.42 2.668 6.662 2.789 9.208.364z"/><path fill="#CDCCCB" d="M509.54 311.986l10.177 3.152-3.515 11.024-50.042 45.196-9.572-10.298z"/><path fill="#ADABA6" d="M469.19 374.752l-6.178-6.666 56.705-52.948 2.426 10.54z"/><path fill="#E5E5E3" d="M476.825 380.688l-25.568-27.626-2.3 2.058 25.564 27.63z"/><path fill="#E5E5E3" d="M466.769 372.085l.363-7.752-7.877-.367-.242 7.877z"/><path fill="#FFE6D6" d="M443.259 373.784l12.36-11.392 8.967 9.693-11.751 10.665z"/><path fill="#F5CAB3" d="M465.554 382.387l-.968-10.302-11.751 10.665z"/><path fill="#464646" d="M557.754 419.996l-15.275-22.788-6.889 9.14 8.515 28.547z"/><path fill="#727272" d="M546.862 403.717l-4.383-6.509-6.889 9.14 2.381 8.136z"/><circle cx="492.276" cy="383.892" r="2.485"/><path d="M512.782 385.714c0 1.372-1.112 2.485-2.485 2.485s-2.485-1.112-2.485-2.485c0-1.372 1.112-2.485 2.485-2.485s2.485 1.112 2.485 2.485z"/></g><g><path fill="#737474" d="M255.217 552.358l-2.393 11.37-33.855-11.285 2.394-15.217z"/><path fill="#606060" d="M235.725 526.454l-14.362 10.772 31.461 26.502 54.201 3.249v-38.471zM335.75 534.661l40.523 28.725 11.285-11.798-14.036-45.125z"/><path fill="#737474" d="M323.439 540.303l-16.414 26.674 69.248-3.591-24.622-33.854z"/><path fill="#858686" d="M275.735 503.371l-3.077 37.958 34.367 25.648 44.626-37.445z"/><path fill="#8F8F8F" d="M278.813 509.527l-52.577-.385-4.873 28.084 51.295 4.103 22.227-26.416z"/><path fill="#A3A2A2" d="M293.175 487.213l-42.574 8.977-24.365 12.952 68.649 5.771 56.766 14.619 21.871-23.069z"/></g><g><path fill="#F5CAB3" d="M383.354 312.345l4.631-4.065 1.172-15.345-14.007-5.003-7.404 12.807 7.204 12.407z"/><path fill="#C4937D" d="M367.946 302.94l20.039 5.34-6.832 16.472-12.206 1.2z"/><path fill="#FFE6D6" d="M367.546 334.957l-1.201-17.609-2.201-9.805 3.202-12.607 4.602 2.401-1.2 9.405 4.002 8.205-6.204 20.611z"/><path fill="#B8C745" d="M346.982 346.095l20.244 13.939 1.315 16.568-13.849 24.607-93.102-16.926.772-28.556 10.099-6.121z"/><path fill="#E8F177" d="M272.461 349.606l74.521-3.511 20.244 13.939 1.315 16.568-11.63-8.008-86.268-7.165-8.281-5.702z"/><path fill="#436124" d="M272.396 484.536l-7.904-18.31.1-81.943 15.608 2.101 25.108 1.504 45.029-1.904 15.997 113.654-15.174 13.216-69.77-12.609-26.103-5.804z"/><path fill="#59753C" d="M345.734 397.59l9.405-20.811 18.383 129.684-9.591-2.949-5.171-9.34z"/><path fill="#709D52" d="M351.16 512.854l22.362-6.391-14.762-12.289z"/><path fill="#425B2C" d="M295.308 470.228l.4 11.206 14.208 7.404 12.406-30.016-21.111-8.604z"/><path fill="#C4937D" d="M224.363 395.748l-5.604 4.039-8.254-2.009 2.892-14.594z"/><path fill="#C4C4C4" d="M203.7860922 402.9456794l37.6043025-130.1854177 6.3435021 1.8323325-37.6043025 130.1854177z"/><path fill="#DDDDDC" d="M212.755 405.939c.942-3.261-.938-6.668-4.199-7.61-3.261-.942-6.668.938-7.61 4.199-.942 3.261.938 6.668 4.199 7.61 3.261.942 6.668-.939 7.61-4.199z"/><path fill="#C4C4C4" d="M234.813 268.378l11.528-1.751 3.233 11.823-28.076 86.967-13.556-3.997z"/><path fill="#A3A3A3" d="M228.29 367.296l-9.943-2.871 27.994-97.798 8.819 7.628z"/><path fill="#DDDDDC" d="M240.277 364.774l4.044 8.741-7.814 4.312-4.085-7.404-10.236-2.956-5.611 3.097-3.097-5.612-9.309-2.688-7.403 4.085-5.239-8.081 9.009-4.971 2.251 4.865 11.678 3.373 5.611-3.097 3.097 5.612 12.606 3.64z"/><path fill="#F5CAB3" d="M208.341 374.23l9.088 7.188-4.352 16.994-11.819-2.482z"/><path fill="#FFE6D6" d="M228.978 391.323l-5.658-7.679-4.664-8.403-10.715 6.21 2.329 3.322 5.149-1.71.307 7.184 8 4.797z"/><path fill="#54B08B" d="M264.191 399.991l-14.607-11.806-26.264-4.541-4.561 16.143 37.428 14.512z"/><path fill="#3F8F6F" d="M264.462 465.727l19.525 7.948-2.895 14.358h-10.047l-6.583-5.702z"/><path fill="#54B08B" d="M264.462 482.331l-12.488 12.381 12.066 2.733 17.35-2.733-.298-6.679z"/><path fill="#3F8F6F" d="M251.974 500.245h29.416v-5.533h-24.813l-9.749-3.673z"/><path fill="#36785D" d="M264.462 465.727l17.901 15.285 1.624-7.337-9.762-7.948z"/><path fill="#3F8F6F" d="M322.897 490.033l3.066 12.209 10.055 1.199 9.022-3.803-1.539-14.139z"/><path fill="#54B08B" d="M345.04 499.638l6.12 13.216h-25.615l.418-10.612z"/><path fill="#3F8F6F" d="M325.545 517.45h25.615v-4.596l-12.808-3.935-12.807 3.935z"/><path fill="#36785D" d="M343.501 485.499l-19 10.921-1.604-6.387 6.318-5.601z"/><path fill="#59753C" d="M308.194 434.819l2.922 19.801-15.408 26.814-31.216-15.208 13.261-30.194 11.668-5.191z"/><path fill="#709D52" d="M339.301 445.749l4.2 39.75-33.585 3.339-1.722-54.019z"/><path fill="#59753C" d="M277.753 375.281l-7.11-13.852-21.059 26.756 6.603 26.114 21.311-17.709zM341.065 362.846l-23.158 12.135-21.013 16.206 11.3 43.632h30.364l.273-10.114 6.903-27.115z"/><path fill="#709D52" d="M305.308 387.888l2.882 43.895.004 3.036h-30.441l-.084-14.263-7.026-59.127 14.849-1.395.53 6.176 6.312-.298 3.316 14.271z"/><path fill="#99C26D" d="M338.558 434.819l-60.909-6.112-.901 9.305 62.553 7.737z"/><path fill="#728D55" d="M373.749 363.772l-13.007-16.008-22.021 13.719-5.182-.762 5.814 20.739 6.381 16.13z"/><path fill="#34785C" d="M305.58 382.356l-8.386-8.704-4.86-7.74-8.847 1.288.775 13.058 21.046 7.63 4.992-4.464z"/><path fill="#54B08B" d="M305.58 382.356l-.272 5.532 34.045-6.428 2.379-21.49-8.254-1.5-8.471 11.508z"/><path fill="#2B2B2B" d="M335.579 359.22l2.18-30.695 4.075-8.465 7.71 3.554.643 30.904-8.455 5.452zM272.96 319.625l-2.317 41.804 12.257-1.066 1.963-44.828z"/><path fill="#FFE6D6" d="M283.487 367.2l39.41-1.858 11.163-7.971 5.293-60.515-61.613-2.656z"/><path fill="#F5CAB3" d="M289.421 366.921l40.322-5.3 4.848-58.872 7.243-11.532-6.333 73.696-1.441 9.164-28.48 8.279-14.82-7.284z"/><path fill="#C4937D" d="M311.695 342.337l-5.781 3.956-5.781-3.956z"/><path fill="#F5CAB3" d="M329.77 327.169l-12.088 3.714-5.987 11.454-3.41-18.503 17.22-1.562zM300.133 342.337l-8.594-11.454-9.481-3.714 4.265-2.684 7.823-.871 9.398.22v11.47z"/><path fill="#FFF1E8" d="M300.133 342.337l5.781 1.454 5.781-1.454-3.41-18.503h-4.741z"/><path fill="#474747" d="M303.544 323.834l-17.221.651-4.265 2.684 4.265-7.109zM308.285 323.834l17.22.651 4.265 2.684-4.265-7.109z"/><path fill="#C4937D" d="M303.946 377.677l-14.525-10.756 46.08-2.008z"/><path fill="#4F5253" d="M349.544 323.614l-1.223-30.679-12.82-3.199-10.063-7.664h-34.357l-7.594 9.145-13.116 5.639 2.589 22.769 6.876 1.191-1.588-21.379 26.591 8.706 28.762-12.948 4.86 37.11z"/><path fill="#6F7173" d="M304.839 308.143l20.599-26.071 22.883 10.863-13.73 9.814z"/><path fill="#F5CAB3" d="M330.959 346.849l-48.851 2.834 1.379 17.517 46.283-2.038z"/><path fill="#474747" d="M291.081 282.072l13.758 26.071-26.359-5.593-8.109-5.694z"/><path fill="#CEA697" d="M330.959 346.849l6.312-2.534-1.77 20.598-5.731.249z"/><circle fill="#2B2B2B" cx="294.146" cy="330.883" r="2.93"/><path fill="#2B2B2B" d="M317.472 330.883c0 1.618 1.312 2.93 2.93 2.93s2.93-1.312 2.93-2.93-1.312-2.93-2.93-2.93c-1.618-.001-2.93 1.311-2.93 2.93z"/><path fill="#C4937D" d="M294.833 351.191l23.787-1.351-4.802 11.181-13.132.675z"/><path fill="#FFF" d="M297.984 352.617l17.822-1.013-1.913 4.577-13.658.788z"/><path fill="#54B08B" d="M366.345 317.348l-11.556 34.068 18.96 12.356 7.404-39.02z"/></g></svg>